<svg width="375" height="223" viewBox="0 0 375 223" fill="none" xmlns="http://www.w3.org/2000/svg">
<path d="M0 97H375V168C375 198.376 350.376 223 320 223H55C24.6243 223 0 198.376 0 168V97Z" fill="#481121"/>
<path d="M0 33C0 14.7746 14.7746 0 33 0H342C360.225 0 375 14.7746 375 33V101C375 131.376 350.376 156 320 156H55C24.6243 156 0 131.376 0 101V33Z" fill="#F5ECC4"/>
<path d="M114.859 86.9219L110.914 78.0742C110.524 77.2148 109.918 76.5117 109.117 75.9648C108.316 75.418 107.438 75.1445 106.5 75.1445C105.328 75.1445 104.352 75.5547 103.57 76.3555C102.828 77.0977 102.359 78.0547 102.164 79.2461L99.1563 96.3359C99.0782 96.707 99.0587 97.0586 99.0587 97.4102C99.0587 98.6016 99.3126 99.5781 99.8595 100.34C100.719 101.59 101.93 102.195 103.512 102.195C104.645 102.195 105.66 101.785 106.52 100.965C107.223 100.301 107.691 99.3438 107.906 98.0938L108.629 93.8359L110.387 98.6016C111.266 101.004 112.75 102.195 114.859 102.195C116.969 102.195 118.473 100.984 119.371 98.5625L121.109 93.8359L122.086 98.8359C122.281 99.8906 122.789 100.711 123.609 101.297C124.41 101.902 125.348 102.195 126.441 102.195C127.652 102.195 128.668 101.785 129.508 100.965C130.348 100.145 130.777 99.1484 130.777 97.9375C130.777 97.4492 130.719 96.9414 130.641 96.4336L127.574 79.2461C127.086 76.5117 125.621 75.1445 123.18 75.1445C121.305 75.1445 120.016 75.9258 119.293 77.4883L114.859 86.9219ZM142.242 80.5938C142.242 78.7578 141.852 77.4102 141.09 76.5508C140.231 75.6133 139.156 75.1445 137.828 75.1445C136.5 75.1445 135.406 75.6328 134.566 76.5703C133.824 77.4102 133.453 78.7578 133.453 80.5938V97.1367C133.453 98.7773 133.824 99.9883 134.566 100.77C135.445 101.727 136.539 102.195 137.828 102.195C139.234 102.195 140.328 101.688 141.129 100.672C141.871 99.7539 142.242 98.582 142.242 97.1367V80.5938ZM150.406 88.25L145.387 94.832C144.703 95.7305 144.371 96.7266 144.371 97.8203C144.371 99.0312 144.801 100.066 145.66 100.926C146.52 101.785 147.574 102.195 148.785 102.195C150.172 102.195 151.363 101.57 152.359 100.281L155.973 95.5938L159.566 100.32C160.504 101.57 161.715 102.195 163.16 102.195C164.586 102.195 165.738 101.629 166.598 100.477C167.184 99.6953 167.477 98.8164 167.477 97.8203C167.477 96.7266 167.145 95.7695 166.52 94.9102L161.52 88.25L165.602 82.8594C166.539 81.6094 167.027 80.4961 167.027 79.4805C167.027 78.6211 166.754 77.8008 166.207 77.0391C165.27 75.7891 164.059 75.1445 162.535 75.1445C161.168 75.1445 159.859 75.9453 158.629 77.5078L155.973 80.8867L153.121 77.1367C152.106 75.8086 150.875 75.1445 149.43 75.1445C147.984 75.1445 146.832 75.7109 145.934 76.8047C145.27 77.625 144.938 78.5234 144.938 79.5C144.938 80.4766 145.524 81.7461 146.695 83.3086L150.406 88.25ZM174.274 83.5234V96.9023C174.274 98.4453 174.527 99.5977 175.074 100.34C175.914 101.551 177.125 102.156 178.707 102.156C180.27 102.156 181.481 101.492 182.32 100.164C182.809 99.3828 183.063 98.25 183.063 96.8047V83.5234H185.074C186.637 83.5234 187.75 83.2109 188.453 82.5664C189.41 81.668 189.899 80.6133 189.899 79.4023C189.899 78.6406 189.664 77.918 189.234 77.2148C188.805 76.5117 188.238 76.0234 187.535 75.7305C186.891 75.4766 185.484 75.3398 183.316 75.3398H174.449C171.93 75.3398 170.328 75.4961 169.664 75.7891C169 76.082 168.453 76.5703 168.024 77.2734C167.594 77.9766 167.399 78.6992 167.399 79.4414C167.399 80.7109 167.848 81.7266 168.746 82.4688C169.586 83.1719 170.66 83.5234 171.949 83.5234H174.274ZM196.402 98.543H204.566C205.113 99.7539 205.68 100.633 206.246 101.141C206.988 101.844 207.945 102.195 209.078 102.195C210.445 102.195 211.578 101.668 212.477 100.613C213.141 99.8125 213.492 98.8945 213.492 97.8398C213.492 97.1367 213.316 96.4336 212.984 95.7109L204.566 77.8203C203.727 76.043 202.359 75.1445 200.445 75.1445C198.551 75.1445 197.203 76.0234 196.402 77.7422L188.063 95.4961C187.691 96.2773 187.516 97.0586 187.516 97.8203C187.516 98.7578 187.77 99.5781 188.277 100.32C189.137 101.57 190.328 102.195 191.891 102.195C193.141 102.195 194.215 101.727 195.113 100.75C195.543 100.281 195.973 99.5391 196.402 98.543ZM223.766 94.5195H225.289C228.961 94.5195 231.754 93.1523 233.668 90.3789C234.801 88.7383 235.367 86.9414 235.367 84.9492C235.367 82.8398 234.742 80.9453 233.492 79.2656C232.242 77.5859 230.621 76.4531 228.609 75.8281C227.535 75.5156 225.816 75.3398 223.473 75.3398H219.762C218.238 75.3398 217.047 75.7891 216.188 76.668C215.367 77.4883 214.977 78.7383 214.977 80.418V95.9844C214.977 97.1562 214.996 97.8789 215.035 98.1719C215.113 98.9141 215.348 99.5781 215.738 100.184C216.578 101.531 217.809 102.195 219.41 102.195C220.816 102.195 221.91 101.688 222.691 100.672C223.395 99.7539 223.766 98.5625 223.766 97.1172V94.5195ZM246.598 93.7578V91.7461H249.742C252.32 91.7461 253.629 90.6914 253.629 88.5625C253.629 87.5664 253.277 86.7852 252.574 86.1992C251.91 85.6719 251.07 85.3984 250.055 85.3984H246.598V83.582H250.934C252.379 83.582 253.512 83.25 254.352 82.5859C255.289 81.8438 255.758 80.7695 255.758 79.3633C255.758 78.0742 255.211 77.0195 254.156 76.1992C253.551 75.75 252.789 75.4766 251.852 75.3789C251.617 75.3594 250.777 75.3398 249.352 75.3398H244.098C242.691 75.3398 241.774 75.3789 241.324 75.457C240.348 75.6523 239.566 76.0625 238.941 76.7266C238.395 77.3125 238.043 78.0352 237.906 78.875C237.828 79.3047 237.789 80.1055 237.789 81.3164V95.8086C237.789 97.4102 237.906 98.5625 238.141 99.2656C238.512 100.359 239.293 101.16 240.465 101.629C241.051 101.883 242.164 102 243.785 102H250.641C252.32 102 253.551 101.688 254.293 101.062C255.231 100.262 255.719 99.207 255.719 97.8984C255.719 96.6289 255.231 95.5938 254.293 94.7734C253.473 94.1094 252.242 93.7578 250.602 93.7578H246.598ZM261.539 91.9219C260.406 91.9414 259.449 92.332 258.688 93.0742C257.906 93.8359 257.535 94.7734 257.535 95.9062C257.535 97.6055 258.316 99.0898 259.879 100.34C261.832 101.941 264.293 102.723 267.281 102.723C270.25 102.723 272.672 101.961 274.547 100.438C276.539 98.7969 277.555 96.5312 277.555 93.6016C277.555 90.9258 276.656 88.8359 274.879 87.3516C273.531 86.2578 271.637 85.3203 269.195 84.5391C267.418 83.9922 266.539 83.3867 266.539 82.7227C266.539 82.0195 266.891 81.668 267.613 81.668C268.024 81.668 268.649 82 269.469 82.625C270.777 83.6602 271.969 84.168 273.063 84.168C274.078 84.168 274.918 83.8359 275.563 83.1328C276.207 82.4297 276.539 81.5703 276.539 80.5156C276.539 78.7969 275.68 77.3711 273.981 76.2773C272.262 75.1836 270.27 74.6172 267.965 74.6172C265.289 74.6172 263.043 75.3398 261.246 76.7461C259.176 78.3867 258.141 80.5938 258.141 83.4062C258.141 87.1367 260.094 89.6953 264.02 91.0625C266.402 91.9219 267.731 92.4102 267.965 92.5664C268.395 92.8789 268.629 93.2305 268.629 93.6602C268.629 94.4414 268.238 94.832 267.496 94.832C266.988 94.832 266.031 94.3047 264.664 93.2109C263.551 92.3516 262.516 91.9219 261.539 91.9219Z" fill="#481121"/>
<path d="M41.773 179.413H42.18C42.6054 179.413 42.9317 179.325 43.159 179.149C43.3864 178.973 43.5 178.72 43.5 178.39C43.5 178.06 43.3864 177.807 43.159 177.631C42.9317 177.455 42.6054 177.367 42.18 177.367H41.773V179.413ZM46.514 184H43.83L41.773 180.81V184H39.617V175.706H42.972C43.434 175.706 43.8374 175.776 44.182 175.915C44.5267 176.047 44.809 176.23 45.029 176.465C45.2564 176.7 45.425 176.971 45.535 177.279C45.6524 177.587 45.711 177.917 45.711 178.269C45.711 178.9 45.557 179.413 45.249 179.809C44.9484 180.198 44.501 180.462 43.907 180.601L46.514 184ZM52.1349 177.532H49.5719V178.918H51.9919V180.744H49.5719V182.174H52.1349V184H47.4159V175.706H52.1349V177.532ZM56.8353 177.532V184H54.6793V177.532H52.9083V175.706H58.6063V177.532H56.8353ZM61.7213 179.413H62.1283C62.5536 179.413 62.88 179.325 63.1073 179.149C63.3346 178.973 63.4483 178.72 63.4483 178.39C63.4483 178.06 63.3346 177.807 63.1073 177.631C62.88 177.455 62.5536 177.367 62.1283 177.367H61.7213V179.413ZM66.4623 184H63.7783L61.7213 180.81V184H59.5653V175.706H62.9203C63.3823 175.706 63.7856 175.776 64.1303 175.915C64.475 176.047 64.7573 176.23 64.9773 176.465C65.2046 176.7 65.3733 176.971 65.4833 177.279C65.6006 177.587 65.6593 177.917 65.6593 178.269C65.6593 178.9 65.5053 179.413 65.1973 179.809C64.8966 180.198 64.4493 180.462 63.8553 180.601L66.4623 184ZM69.0947 179.853C69.0947 180.183 69.1571 180.487 69.2817 180.766C69.4064 181.045 69.5751 181.287 69.7877 181.492C70.0004 181.697 70.2461 181.859 70.5247 181.976C70.8107 182.086 71.1114 182.141 71.4267 182.141C71.7421 182.141 72.0391 182.086 72.3177 181.976C72.6037 181.859 72.8531 181.697 73.0657 181.492C73.2857 181.287 73.4581 181.045 73.5827 180.766C73.7074 180.487 73.7697 180.183 73.7697 179.853C73.7697 179.523 73.7074 179.219 73.5827 178.94C73.4581 178.661 73.2857 178.419 73.0657 178.214C72.8531 178.009 72.6037 177.851 72.3177 177.741C72.0391 177.624 71.7421 177.565 71.4267 177.565C71.1114 177.565 70.8107 177.624 70.5247 177.741C70.2461 177.851 70.0004 178.009 69.7877 178.214C69.5751 178.419 69.4064 178.661 69.2817 178.94C69.1571 179.219 69.0947 179.523 69.0947 179.853ZM66.8397 179.853C66.8397 179.237 66.9534 178.665 67.1807 178.137C67.4081 177.602 67.7234 177.136 68.1267 176.74C68.5301 176.344 69.0104 176.036 69.5677 175.816C70.1324 175.589 70.7521 175.475 71.4267 175.475C72.0941 175.475 72.7101 175.589 73.2747 175.816C73.8394 176.036 74.3234 176.344 74.7267 176.74C75.1374 177.136 75.4564 177.602 75.6837 178.137C75.9111 178.665 76.0247 179.237 76.0247 179.853C76.0247 180.469 75.9111 181.045 75.6837 181.58C75.4564 182.108 75.1374 182.57 74.7267 182.966C74.3234 183.362 73.8394 183.674 73.2747 183.901C72.7101 184.121 72.0941 184.231 71.4267 184.231C70.7521 184.231 70.1324 184.121 69.5677 183.901C69.0104 183.674 68.5301 183.362 68.1267 182.966C67.7234 182.57 67.4081 182.108 67.1807 181.58C66.9534 181.045 66.8397 180.469 66.8397 179.853ZM79.5426 175.706V180.216C79.5426 180.458 79.5499 180.707 79.5646 180.964C79.5866 181.213 79.6416 181.441 79.7296 181.646C79.8249 181.851 79.9716 182.02 80.1696 182.152C80.3676 182.277 80.6462 182.339 81.0056 182.339C81.3649 182.339 81.6399 182.277 81.8306 182.152C82.0286 182.02 82.1752 181.851 82.2706 181.646C82.3659 181.441 82.4209 181.213 82.4356 180.964C82.4576 180.707 82.4686 180.458 82.4686 180.216V175.706H84.6136V180.513C84.6136 181.804 84.3166 182.746 83.7226 183.34C83.1359 183.934 82.2302 184.231 81.0056 184.231C79.7809 184.231 78.8716 183.934 78.2776 183.34C77.6836 182.746 77.3866 181.804 77.3866 180.513V175.706H79.5426ZM87.8303 175.706L89.8323 180.755L91.8453 175.706H94.1883L90.6903 184H88.9743L85.4873 175.706H87.8303ZM99.7765 177.532H97.2135V178.918H99.6335V180.744H97.2135V182.174H99.7765V184H95.0575V175.706H99.7765V177.532ZM104.246 182.174H107.722V184H100.627L104.554 177.532H101.287V175.706H108.151L104.246 182.174ZM115.078 175.706V184H112.922V175.706H115.078ZM122.783 178.478C122.285 177.869 121.669 177.565 120.935 177.565C120.613 177.565 120.312 177.624 120.033 177.741C119.762 177.858 119.527 178.02 119.329 178.225C119.131 178.423 118.974 178.661 118.856 178.94C118.746 179.219 118.691 179.519 118.691 179.842C118.691 180.172 118.746 180.476 118.856 180.755C118.974 181.034 119.131 181.276 119.329 181.481C119.535 181.686 119.773 181.848 120.044 181.965C120.316 182.082 120.609 182.141 120.924 182.141C121.614 182.141 122.233 181.848 122.783 181.261V183.813L122.563 183.89C122.233 184.007 121.925 184.092 121.639 184.143C121.353 184.202 121.071 184.231 120.792 184.231C120.22 184.231 119.67 184.125 119.142 183.912C118.622 183.692 118.16 183.388 117.756 182.999C117.36 182.603 117.041 182.137 116.799 181.602C116.557 181.059 116.436 180.469 116.436 179.831C116.436 179.193 116.554 178.61 116.788 178.082C117.03 177.547 117.349 177.088 117.745 176.707C118.149 176.318 118.614 176.018 119.142 175.805C119.67 175.585 120.224 175.475 120.803 175.475C121.133 175.475 121.456 175.512 121.771 175.585C122.094 175.651 122.431 175.757 122.783 175.904V178.478ZM126.303 175.706V184H124.147V175.706H126.303ZM133.93 182.174H134.425C134.799 182.174 135.133 182.115 135.426 181.998C135.72 181.881 135.965 181.719 136.163 181.514C136.369 181.309 136.523 181.067 136.625 180.788C136.735 180.502 136.79 180.19 136.79 179.853C136.79 179.523 136.735 179.215 136.625 178.929C136.515 178.643 136.358 178.397 136.152 178.192C135.954 177.987 135.709 177.825 135.415 177.708C135.122 177.591 134.792 177.532 134.425 177.532H133.93V182.174ZM131.774 175.706H134.964C135.529 175.706 136.057 175.82 136.548 176.047C137.047 176.274 137.48 176.579 137.846 176.96C138.22 177.334 138.514 177.774 138.726 178.28C138.939 178.779 139.045 179.303 139.045 179.853C139.045 180.396 138.939 180.92 138.726 181.426C138.521 181.925 138.231 182.365 137.857 182.746C137.491 183.127 137.058 183.432 136.559 183.659C136.068 183.886 135.536 184 134.964 184H131.774V175.706ZM145.141 177.532H142.578V178.918H144.998V180.744H142.578V182.174H145.141V184H140.422V175.706H145.141V177.532ZM151.249 177.829C151.015 177.638 150.78 177.499 150.545 177.411C150.311 177.316 150.083 177.268 149.863 177.268C149.585 177.268 149.357 177.334 149.181 177.466C149.005 177.598 148.917 177.77 148.917 177.983C148.917 178.13 148.961 178.251 149.049 178.346C149.137 178.441 149.251 178.526 149.39 178.599C149.537 178.665 149.698 178.724 149.874 178.775C150.058 178.826 150.237 178.881 150.413 178.94C151.117 179.175 151.631 179.49 151.953 179.886C152.283 180.275 152.448 180.784 152.448 181.415C152.448 181.84 152.375 182.225 152.228 182.57C152.089 182.915 151.88 183.212 151.601 183.461C151.33 183.703 150.993 183.89 150.589 184.022C150.193 184.161 149.742 184.231 149.236 184.231C148.188 184.231 147.216 183.919 146.321 183.296L147.245 181.558C147.568 181.844 147.887 182.057 148.202 182.196C148.518 182.335 148.829 182.405 149.137 182.405C149.489 182.405 149.75 182.324 149.918 182.163C150.094 182.002 150.182 181.818 150.182 181.613C150.182 181.488 150.16 181.382 150.116 181.294C150.072 181.199 149.999 181.114 149.896 181.041C149.794 180.96 149.658 180.887 149.489 180.821C149.328 180.755 149.13 180.682 148.895 180.601C148.617 180.513 148.342 180.418 148.07 180.315C147.806 180.205 147.568 180.062 147.355 179.886C147.15 179.71 146.981 179.49 146.849 179.226C146.725 178.955 146.662 178.614 146.662 178.203C146.662 177.792 146.728 177.422 146.86 177.092C147 176.755 147.19 176.469 147.432 176.234C147.682 175.992 147.982 175.805 148.334 175.673C148.694 175.541 149.093 175.475 149.533 175.475C149.944 175.475 150.373 175.534 150.82 175.651C151.268 175.761 151.697 175.926 152.107 176.146L151.249 177.829ZM157.171 184L158.579 175.706H160.713L162.374 180.128L164.024 175.706H166.158L167.566 184H165.421L164.706 179.226L162.748 184H161.89L160.031 179.226L159.316 184H157.171ZM171.088 175.706V184H168.932V175.706H171.088ZM175.196 179.578L172.611 175.706H175.273L176.395 177.851L177.781 175.706H180.443L177.704 179.578L180.795 184H178.166L176.505 181.294L174.558 184H171.951L175.196 179.578ZM190.151 177.532H187.555V178.918H189.92V180.744H187.555V184H185.399V175.706H190.151V177.532ZM195.603 180.92L194.635 178.159L193.667 180.92H195.603ZM196.175 182.559H193.095L192.6 184H190.301L193.458 175.706H195.812L198.969 184H196.67L196.175 182.559ZM202.068 175.706V184H199.912V175.706H202.068ZM206.947 177.532V184H204.791V177.532H203.02V175.706H208.718V177.532H206.947ZM217.969 177.829C217.734 177.638 217.5 177.499 217.265 177.411C217.03 177.316 216.803 177.268 216.583 177.268C216.304 177.268 216.077 177.334 215.901 177.466C215.725 177.598 215.637 177.77 215.637 177.983C215.637 178.13 215.681 178.251 215.769 178.346C215.857 178.441 215.971 178.526 216.11 178.599C216.257 178.665 216.418 178.724 216.594 178.775C216.777 178.826 216.957 178.881 217.133 178.94C217.837 179.175 218.35 179.49 218.673 179.886C219.003 180.275 219.168 180.784 219.168 181.415C219.168 181.84 219.095 182.225 218.948 182.57C218.809 182.915 218.6 183.212 218.321 183.461C218.05 183.703 217.712 183.89 217.309 184.022C216.913 184.161 216.462 184.231 215.956 184.231C214.907 184.231 213.936 183.919 213.041 183.296L213.965 181.558C214.288 181.844 214.607 182.057 214.922 182.196C215.237 182.335 215.549 182.405 215.857 182.405C216.209 182.405 216.469 182.324 216.638 182.163C216.814 182.002 216.902 181.818 216.902 181.613C216.902 181.488 216.88 181.382 216.836 181.294C216.792 181.199 216.719 181.114 216.616 181.041C216.513 180.96 216.378 180.887 216.209 180.821C216.048 180.755 215.85 180.682 215.615 180.601C215.336 180.513 215.061 180.418 214.79 180.315C214.526 180.205 214.288 180.062 214.075 179.886C213.87 179.71 213.701 179.49 213.569 179.226C213.444 178.955 213.382 178.614 213.382 178.203C213.382 177.792 213.448 177.422 213.58 177.092C213.719 176.755 213.91 176.469 214.152 176.234C214.401 175.992 214.702 175.805 215.054 175.673C215.413 175.541 215.813 175.475 216.253 175.475C216.664 175.475 217.093 175.534 217.54 175.651C217.987 175.761 218.416 175.926 218.827 176.146L217.969 177.829ZM222.682 179.512H223.397C224.189 179.512 224.585 179.167 224.585 178.478C224.585 177.789 224.189 177.444 223.397 177.444H222.682V179.512ZM222.682 184H220.526V175.706H223.958C224.89 175.706 225.601 175.948 226.092 176.432C226.591 176.916 226.84 177.598 226.84 178.478C226.84 179.358 226.591 180.04 226.092 180.524C225.601 181.008 224.89 181.25 223.958 181.25H222.682V184ZM232.7 177.532H230.137V178.918H232.557V180.744H230.137V182.174H232.7V184H227.981V175.706H232.7V177.532ZM232.293 173.594L230.181 175.046L229.345 174.265L231.138 172.549L232.293 173.594ZM240.228 178.478C239.729 177.869 239.113 177.565 238.38 177.565C238.057 177.565 237.756 177.624 237.478 177.741C237.206 177.858 236.972 178.02 236.774 178.225C236.576 178.423 236.418 178.661 236.301 178.94C236.191 179.219 236.136 179.519 236.136 179.842C236.136 180.172 236.191 180.476 236.301 180.755C236.418 181.034 236.576 181.276 236.774 181.481C236.979 181.686 237.217 181.848 237.489 181.965C237.76 182.082 238.053 182.141 238.369 182.141C239.058 182.141 239.678 181.848 240.228 181.261V183.813L240.008 183.89C239.678 184.007 239.37 184.092 239.084 184.143C238.798 184.202 238.515 184.231 238.237 184.231C237.665 184.231 237.115 184.125 236.587 183.912C236.066 183.692 235.604 183.388 235.201 182.999C234.805 182.603 234.486 182.137 234.244 181.602C234.002 181.059 233.881 180.469 233.881 179.831C233.881 179.193 233.998 178.61 234.233 178.082C234.475 177.547 234.794 177.088 235.19 176.707C235.593 176.318 236.059 176.018 236.587 175.805C237.115 175.585 237.668 175.475 238.248 175.475C238.578 175.475 238.9 175.512 239.216 175.585C239.538 175.651 239.876 175.757 240.228 175.904V178.478ZM243.748 175.706V184H241.592V175.706H243.748ZM249.99 180.92L249.022 178.159L248.054 180.92H249.99ZM250.562 182.559H247.482L246.987 184H244.688L247.845 175.706H250.199L253.356 184H251.057L250.562 182.559ZM256.456 175.706V182.174H259.041V184H254.3V175.706H256.456ZM264.873 177.532H262.31V178.918H264.73V180.744H262.31V182.174H264.873V184H260.154V175.706H264.873V177.532ZM266.054 184L267.462 175.706H269.596L271.257 180.128L272.907 175.706H275.041L276.449 184H274.304L273.589 179.226L271.631 184H270.773L268.914 179.226L268.199 184H266.054ZM282.533 177.532H279.97V178.918H282.39V180.744H279.97V182.174H282.533V184H277.814V175.706H282.533V177.532ZM284.088 184V175.706H286.244L290.226 180.777V175.706H292.371V184H290.226L286.244 178.929V184H284.088ZM297.256 177.532V184H295.1V177.532H293.329V175.706H299.027V177.532H297.256ZM305.88 179.512H306.595C307.387 179.512 307.783 179.167 307.783 178.478C307.783 177.789 307.387 177.444 306.595 177.444H305.88V179.512ZM305.88 184H303.724V175.706H307.156C308.088 175.706 308.799 175.948 309.29 176.432C309.789 176.916 310.038 177.598 310.038 178.478C310.038 179.358 309.789 180.04 309.29 180.524C308.799 181.008 308.088 181.25 307.156 181.25H305.88V184ZM313.061 179.853C313.061 180.183 313.123 180.487 313.248 180.766C313.372 181.045 313.541 181.287 313.754 181.492C313.966 181.697 314.212 181.859 314.491 181.976C314.777 182.086 315.077 182.141 315.393 182.141C315.708 182.141 316.005 182.086 316.284 181.976C316.57 181.859 316.819 181.697 317.032 181.492C317.252 181.287 317.424 181.045 317.549 180.766C317.673 180.487 317.736 180.183 317.736 179.853C317.736 179.523 317.673 179.219 317.549 178.94C317.424 178.661 317.252 178.419 317.032 178.214C316.819 178.009 316.57 177.851 316.284 177.741C316.005 177.624 315.708 177.565 315.393 177.565C315.077 177.565 314.777 177.624 314.491 177.741C314.212 177.851 313.966 178.009 313.754 178.214C313.541 178.419 313.372 178.661 313.248 178.94C313.123 179.219 313.061 179.523 313.061 179.853ZM310.806 179.853C310.806 179.237 310.919 178.665 311.147 178.137C311.374 177.602 311.689 177.136 312.093 176.74C312.496 176.344 312.976 176.036 313.534 175.816C314.098 175.589 314.718 175.475 315.393 175.475C316.06 175.475 316.676 175.589 317.241 175.816C317.805 176.036 318.289 176.344 318.693 176.74C319.103 177.136 319.422 177.602 319.65 178.137C319.877 178.665 319.991 179.237 319.991 179.853C319.991 180.469 319.877 181.045 319.65 181.58C319.422 182.108 319.103 182.57 318.693 182.966C318.289 183.362 317.805 183.674 317.241 183.901C316.676 184.121 316.06 184.231 315.393 184.231C314.718 184.231 314.098 184.121 313.534 183.901C312.976 183.674 312.496 183.362 312.093 182.966C311.689 182.57 311.374 182.108 311.147 181.58C310.919 181.045 310.806 180.469 310.806 179.853ZM323.508 175.706V180.216C323.508 180.458 323.516 180.707 323.53 180.964C323.552 181.213 323.607 181.441 323.695 181.646C323.791 181.851 323.937 182.02 324.135 182.152C324.333 182.277 324.612 182.339 324.971 182.339C325.331 182.339 325.606 182.277 325.796 182.152C325.994 182.02 326.141 181.851 326.236 181.646C326.332 181.441 326.387 181.213 326.401 180.964C326.423 180.707 326.434 180.458 326.434 180.216V175.706H328.579V180.513C328.579 181.804 328.282 182.746 327.688 183.34C327.102 183.934 326.196 184.231 324.971 184.231C323.747 184.231 322.837 183.934 322.243 183.34C321.649 182.746 321.352 181.804 321.352 180.513V175.706H323.508ZM332.478 179.413H332.885C333.31 179.413 333.637 179.325 333.864 179.149C334.091 178.973 334.205 178.72 334.205 178.39C334.205 178.06 334.091 177.807 333.864 177.631C333.637 177.455 333.31 177.367 332.885 177.367H332.478V179.413ZM337.219 184H334.535L332.478 180.81V184H330.322V175.706H333.677C334.139 175.706 334.542 175.776 334.887 175.915C335.232 176.047 335.514 176.23 335.734 176.465C335.961 176.7 336.13 176.971 336.24 177.279C336.357 177.587 336.416 177.917 336.416 178.269C336.416 178.9 336.262 179.413 335.954 179.809C335.653 180.198 335.206 180.462 334.612 180.601L337.219 184ZM60.9156 190.706V197.174H63.5006V199H58.7596V190.706H60.9156ZM69.4679 195.92L68.4999 193.159L67.5319 195.92H69.4679ZM70.0399 197.559H66.9599L66.4649 199H64.1659L67.3229 190.706H69.6769L72.8339 199H70.5349L70.0399 197.559ZM79.6715 194.413H80.0785C80.5038 194.413 80.8302 194.325 81.0575 194.149C81.2848 193.973 81.3985 193.72 81.3985 193.39C81.3985 193.06 81.2848 192.807 81.0575 192.631C80.8302 192.455 80.5038 192.367 80.0785 192.367H79.6715V194.413ZM84.4125 199H81.7285L79.6715 195.81V199H77.5155V190.706H80.8705C81.3325 190.706 81.7358 190.776 82.0805 190.915C82.4252 191.047 82.7075 191.23 82.9275 191.465C83.1548 191.7 83.3235 191.971 83.4335 192.279C83.5508 192.587 83.6095 192.917 83.6095 193.269C83.6095 193.9 83.4555 194.413 83.1475 194.809C82.8468 195.198 82.3995 195.462 81.8055 195.601L84.4125 199ZM89.8243 195.92L88.8563 193.159L87.8883 195.92H89.8243ZM90.3963 197.559H87.3163L86.8213 199H84.5223L87.6793 190.706H90.0333L93.1903 199H90.8913L90.3963 197.559ZM96.2896 197.174H96.7846C97.1586 197.174 97.4923 197.115 97.7856 196.998C98.079 196.881 98.3246 196.719 98.5226 196.514C98.728 196.309 98.882 196.067 98.9846 195.788C99.0946 195.502 99.1496 195.19 99.1496 194.853C99.1496 194.523 99.0946 194.215 98.9846 193.929C98.8746 193.643 98.717 193.397 98.5116 193.192C98.3136 192.987 98.068 192.825 97.7746 192.708C97.4813 192.591 97.1513 192.532 96.7846 192.532H96.2896V197.174ZM94.1336 190.706H97.3236C97.8883 190.706 98.4163 190.82 98.9076 191.047C99.4063 191.274 99.839 191.579 100.206 191.96C100.58 192.334 100.873 192.774 101.086 193.28C101.298 193.779 101.405 194.303 101.405 194.853C101.405 195.396 101.298 195.92 101.086 196.426C100.88 196.925 100.591 197.365 100.217 197.746C99.85 198.127 99.4173 198.432 98.9186 198.659C98.4273 198.886 97.8956 199 97.3236 199H94.1336V190.706ZM104.937 190.706V199H102.781V190.706H104.937ZM108.551 194.853C108.551 195.183 108.613 195.487 108.738 195.766C108.862 196.045 109.031 196.287 109.244 196.492C109.456 196.697 109.702 196.859 109.981 196.976C110.267 197.086 110.567 197.141 110.883 197.141C111.198 197.141 111.495 197.086 111.774 196.976C112.06 196.859 112.309 196.697 112.522 196.492C112.742 196.287 112.914 196.045 113.039 195.766C113.163 195.487 113.226 195.183 113.226 194.853C113.226 194.523 113.163 194.219 113.039 193.94C112.914 193.661 112.742 193.419 112.522 193.214C112.309 193.009 112.06 192.851 111.774 192.741C111.495 192.624 111.198 192.565 110.883 192.565C110.567 192.565 110.267 192.624 109.981 192.741C109.702 192.851 109.456 193.009 109.244 193.214C109.031 193.419 108.862 193.661 108.738 193.94C108.613 194.219 108.551 194.523 108.551 194.853ZM106.296 194.853C106.296 194.237 106.409 193.665 106.637 193.137C106.864 192.602 107.179 192.136 107.583 191.74C107.986 191.344 108.466 191.036 109.024 190.816C109.588 190.589 110.208 190.475 110.883 190.475C111.55 190.475 112.166 190.589 112.731 190.816C113.295 191.036 113.779 191.344 114.183 191.74C114.593 192.136 114.912 192.602 115.14 193.137C115.367 193.665 115.481 194.237 115.481 194.853C115.481 195.469 115.367 196.045 115.14 196.58C114.912 197.108 114.593 197.57 114.183 197.966C113.779 198.362 113.295 198.674 112.731 198.901C112.166 199.121 111.55 199.231 110.883 199.231C110.208 199.231 109.588 199.121 109.024 198.901C108.466 198.674 107.986 198.362 107.583 197.966C107.179 197.57 106.864 197.108 106.637 196.58C106.409 196.045 106.296 195.469 106.296 194.853ZM122.737 194.512H123.452C124.244 194.512 124.64 194.167 124.64 193.478C124.64 192.789 124.244 192.444 123.452 192.444H122.737V194.512ZM122.737 199H120.581V190.706H124.013C124.944 190.706 125.656 190.948 126.147 191.432C126.646 191.916 126.895 192.598 126.895 193.478C126.895 194.358 126.646 195.04 126.147 195.524C125.656 196.008 124.944 196.25 124.013 196.25H122.737V199ZM132.084 195.92L131.116 193.159L130.148 195.92H132.084ZM132.656 197.559H129.576L129.081 199H126.782L129.939 190.706H132.293L135.45 199H133.151L132.656 197.559ZM138.549 194.413H138.956C139.382 194.413 139.708 194.325 139.935 194.149C140.163 193.973 140.276 193.72 140.276 193.39C140.276 193.06 140.163 192.807 139.935 192.631C139.708 192.455 139.382 192.367 138.956 192.367H138.549V194.413ZM143.29 199H140.606L138.549 195.81V199H136.393V190.706H139.748C140.21 190.706 140.614 190.776 140.958 190.915C141.303 191.047 141.585 191.23 141.805 191.465C142.033 191.7 142.201 191.971 142.311 192.279C142.429 192.587 142.487 192.917 142.487 193.269C142.487 193.9 142.333 194.413 142.025 194.809C141.725 195.198 141.277 195.462 140.683 195.601L143.29 199ZM150.087 197.174H150.582C150.956 197.174 151.289 197.115 151.583 196.998C151.876 196.881 152.122 196.719 152.32 196.514C152.525 196.309 152.679 196.067 152.782 195.788C152.892 195.502 152.947 195.19 152.947 194.853C152.947 194.523 152.892 194.215 152.782 193.929C152.672 193.643 152.514 193.397 152.309 193.192C152.111 192.987 151.865 192.825 151.572 192.708C151.278 192.591 150.948 192.532 150.582 192.532H150.087V197.174ZM147.931 190.706H151.121C151.685 190.706 152.213 190.82 152.705 191.047C153.203 191.274 153.636 191.579 154.003 191.96C154.377 192.334 154.67 192.774 154.883 193.28C155.095 193.779 155.202 194.303 155.202 194.853C155.202 195.396 155.095 195.92 154.883 196.426C154.677 196.925 154.388 197.365 154.014 197.746C153.647 198.127 153.214 198.432 152.716 198.659C152.224 198.886 151.693 199 151.121 199H147.931V190.706ZM161.297 192.532H158.734V193.918H161.154V195.744H158.734V197.174H161.297V199H156.578V190.706H161.297V192.532ZM167.405 192.829C167.171 192.638 166.936 192.499 166.701 192.411C166.467 192.316 166.239 192.268 166.019 192.268C165.741 192.268 165.513 192.334 165.337 192.466C165.161 192.598 165.073 192.77 165.073 192.983C165.073 193.13 165.117 193.251 165.205 193.346C165.293 193.441 165.407 193.526 165.546 193.599C165.693 193.665 165.854 193.724 166.03 193.775C166.214 193.826 166.393 193.881 166.569 193.94C167.273 194.175 167.787 194.49 168.109 194.886C168.439 195.275 168.604 195.784 168.604 196.415C168.604 196.84 168.531 197.225 168.384 197.57C168.245 197.915 168.036 198.212 167.757 198.461C167.486 198.703 167.149 198.89 166.745 199.022C166.349 199.161 165.898 199.231 165.392 199.231C164.344 199.231 163.372 198.919 162.477 198.296L163.401 196.558C163.724 196.844 164.043 197.057 164.358 197.196C164.674 197.335 164.985 197.405 165.293 197.405C165.645 197.405 165.906 197.324 166.074 197.163C166.25 197.002 166.338 196.818 166.338 196.613C166.338 196.488 166.316 196.382 166.272 196.294C166.228 196.199 166.155 196.114 166.052 196.041C165.95 195.96 165.814 195.887 165.645 195.821C165.484 195.755 165.286 195.682 165.051 195.601C164.773 195.513 164.498 195.418 164.226 195.315C163.962 195.205 163.724 195.062 163.511 194.886C163.306 194.71 163.137 194.49 163.005 194.226C162.881 193.955 162.818 193.614 162.818 193.203C162.818 192.792 162.884 192.422 163.016 192.092C163.156 191.755 163.346 191.469 163.588 191.234C163.838 190.992 164.138 190.805 164.49 190.673C164.85 190.541 165.249 190.475 165.689 190.475C166.1 190.475 166.529 190.534 166.976 190.651C167.424 190.761 167.853 190.926 168.263 191.146L167.405 192.829ZM175.857 197.174H176.352C176.726 197.174 177.06 197.115 177.353 196.998C177.646 196.881 177.892 196.719 178.09 196.514C178.295 196.309 178.449 196.067 178.552 195.788C178.662 195.502 178.717 195.19 178.717 194.853C178.717 194.523 178.662 194.215 178.552 193.929C178.442 193.643 178.284 193.397 178.079 193.192C177.881 192.987 177.635 192.825 177.342 192.708C177.049 192.591 176.719 192.532 176.352 192.532H175.857V197.174ZM173.701 190.706H176.891C177.456 190.706 177.984 190.82 178.475 191.047C178.974 191.274 179.406 191.579 179.773 191.96C180.147 192.334 180.44 192.774 180.653 193.28C180.866 193.779 180.972 194.303 180.972 194.853C180.972 195.396 180.866 195.92 180.653 196.426C180.448 196.925 180.158 197.365 179.784 197.746C179.417 198.127 178.985 198.432 178.486 198.659C177.995 198.886 177.463 199 176.891 199H173.701V190.706ZM185.968 190.706V196.459C185.968 196.701 185.953 196.925 185.924 197.13C185.902 197.335 185.861 197.511 185.803 197.658C185.707 197.893 185.575 198.109 185.407 198.307C185.245 198.498 185.055 198.663 184.835 198.802C184.615 198.934 184.369 199.037 184.098 199.11C183.834 199.191 183.555 199.231 183.262 199.231C182.374 199.231 181.652 198.824 181.095 198.01L182.503 196.569C182.539 196.818 182.62 197.016 182.745 197.163C182.869 197.31 183.023 197.383 183.207 197.383C183.61 197.383 183.812 197.064 183.812 196.426V190.706H185.968ZM192.274 192.829C192.039 192.638 191.804 192.499 191.57 192.411C191.335 192.316 191.108 192.268 190.888 192.268C190.609 192.268 190.382 192.334 190.206 192.466C190.03 192.598 189.942 192.77 189.942 192.983C189.942 193.13 189.986 193.251 190.074 193.346C190.162 193.441 190.275 193.526 190.415 193.599C190.561 193.665 190.723 193.724 190.899 193.775C191.082 193.826 191.262 193.881 191.438 193.94C192.142 194.175 192.655 194.49 192.978 194.886C193.308 195.275 193.473 195.784 193.473 196.415C193.473 196.84 193.399 197.225 193.253 197.57C193.113 197.915 192.904 198.212 192.626 198.461C192.354 198.703 192.017 198.89 191.614 199.022C191.218 199.161 190.767 199.231 190.261 199.231C189.212 199.231 188.24 198.919 187.346 198.296L188.27 196.558C188.592 196.844 188.911 197.057 189.227 197.196C189.542 197.335 189.854 197.405 190.162 197.405C190.514 197.405 190.774 197.324 190.943 197.163C191.119 197.002 191.207 196.818 191.207 196.613C191.207 196.488 191.185 196.382 191.141 196.294C191.097 196.199 191.023 196.114 190.921 196.041C190.818 195.96 190.682 195.887 190.514 195.821C190.352 195.755 190.154 195.682 189.92 195.601C189.641 195.513 189.366 195.418 189.095 195.315C188.831 195.205 188.592 195.062 188.38 194.886C188.174 194.71 188.006 194.49 187.874 194.226C187.749 193.955 187.687 193.614 187.687 193.203C187.687 192.792 187.753 192.422 187.885 192.092C188.024 191.755 188.215 191.469 188.457 191.234C188.706 190.992 189.007 190.805 189.359 190.673C189.718 190.541 190.118 190.475 190.558 190.475C190.968 190.475 191.397 190.534 191.845 190.651C192.292 190.761 192.721 190.926 193.132 191.146L192.274 192.829ZM200.725 197.328H201.198C201.741 197.328 202.13 197.258 202.364 197.119C202.599 196.98 202.716 196.756 202.716 196.448C202.716 196.14 202.599 195.916 202.364 195.777C202.13 195.638 201.741 195.568 201.198 195.568H200.725V197.328ZM200.725 193.962H201.121C201.796 193.962 202.133 193.694 202.133 193.159C202.133 192.624 201.796 192.356 201.121 192.356H200.725V193.962ZM198.569 190.706H201.781C202.544 190.706 203.123 190.889 203.519 191.256C203.915 191.623 204.113 192.151 204.113 192.84C204.113 193.258 204.036 193.606 203.882 193.885C203.736 194.156 203.508 194.387 203.2 194.578C203.508 194.637 203.769 194.728 203.981 194.853C204.201 194.97 204.377 195.117 204.509 195.293C204.649 195.469 204.748 195.667 204.806 195.887C204.865 196.107 204.894 196.342 204.894 196.591C204.894 196.98 204.825 197.324 204.685 197.625C204.553 197.926 204.363 198.179 204.113 198.384C203.871 198.589 203.574 198.743 203.222 198.846C202.87 198.949 202.474 199 202.034 199H198.569V190.706ZM208.002 194.853C208.002 195.183 208.064 195.487 208.189 195.766C208.314 196.045 208.482 196.287 208.695 196.492C208.908 196.697 209.153 196.859 209.432 196.976C209.718 197.086 210.019 197.141 210.334 197.141C210.649 197.141 210.946 197.086 211.225 196.976C211.511 196.859 211.76 196.697 211.973 196.492C212.193 196.287 212.365 196.045 212.49 195.766C212.615 195.487 212.677 195.183 212.677 194.853C212.677 194.523 212.615 194.219 212.49 193.94C212.365 193.661 212.193 193.419 211.973 193.214C211.76 193.009 211.511 192.851 211.225 192.741C210.946 192.624 210.649 192.565 210.334 192.565C210.019 192.565 209.718 192.624 209.432 192.741C209.153 192.851 208.908 193.009 208.695 193.214C208.482 193.419 208.314 193.661 208.189 193.94C208.064 194.219 208.002 194.523 208.002 194.853ZM205.747 194.853C205.747 194.237 205.861 193.665 206.088 193.137C206.315 192.602 206.631 192.136 207.034 191.74C207.437 191.344 207.918 191.036 208.475 190.816C209.04 190.589 209.659 190.475 210.334 190.475C211.001 190.475 211.617 190.589 212.182 190.816C212.747 191.036 213.231 191.344 213.634 191.74C214.045 192.136 214.364 192.602 214.591 193.137C214.818 193.665 214.932 194.237 214.932 194.853C214.932 195.469 214.818 196.045 214.591 196.58C214.364 197.108 214.045 197.57 213.634 197.966C213.231 198.362 212.747 198.674 212.182 198.901C211.617 199.121 211.001 199.231 210.334 199.231C209.659 199.231 209.04 199.121 208.475 198.901C207.918 198.674 207.437 198.362 207.034 197.966C206.631 197.57 206.315 197.108 206.088 196.58C205.861 196.045 205.747 195.469 205.747 194.853ZM218.45 190.706V195.216C218.45 195.458 218.457 195.707 218.472 195.964C218.494 196.213 218.549 196.441 218.637 196.646C218.732 196.851 218.879 197.02 219.077 197.152C219.275 197.277 219.553 197.339 219.913 197.339C220.272 197.339 220.547 197.277 220.738 197.152C220.936 197.02 221.082 196.851 221.178 196.646C221.273 196.441 221.328 196.213 221.343 195.964C221.365 195.707 221.376 195.458 221.376 195.216V190.706H223.521V195.513C223.521 196.804 223.224 197.746 222.63 198.34C222.043 198.934 221.137 199.231 219.913 199.231C218.688 199.231 217.779 198.934 217.185 198.34C216.591 197.746 216.294 196.804 216.294 195.513V190.706H218.45ZM227.42 194.413H227.827C228.252 194.413 228.578 194.325 228.806 194.149C229.033 193.973 229.147 193.72 229.147 193.39C229.147 193.06 229.033 192.807 228.806 192.631C228.578 192.455 228.252 192.367 227.827 192.367H227.42V194.413ZM232.161 199H229.477L227.42 195.81V199H225.264V190.706H228.619C229.081 190.706 229.484 190.776 229.829 190.915C230.173 191.047 230.456 191.23 230.676 191.465C230.903 191.7 231.072 191.971 231.182 192.279C231.299 192.587 231.358 192.917 231.358 193.269C231.358 193.9 231.204 194.413 230.896 194.809C230.595 195.198 230.148 195.462 229.554 195.601L232.161 199ZM235.218 194.413H235.625C236.051 194.413 236.377 194.325 236.604 194.149C236.832 193.973 236.945 193.72 236.945 193.39C236.945 193.06 236.832 192.807 236.604 192.631C236.377 192.455 236.051 192.367 235.625 192.367H235.218V194.413ZM239.959 199H237.275L235.218 195.81V199H233.062V190.706H236.417C236.879 190.706 237.283 190.776 237.627 190.915C237.972 191.047 238.254 191.23 238.474 191.465C238.702 191.7 238.87 191.971 238.98 192.279C239.098 192.587 239.156 192.917 239.156 193.269C239.156 193.9 239.002 194.413 238.694 194.809C238.394 195.198 237.946 195.462 237.352 195.601L239.959 199ZM245.58 192.532H243.017V193.918H245.437V195.744H243.017V197.174H245.58V199H240.861V190.706H245.58V192.532ZM245.173 188.594L243.061 190.046L242.225 189.265L244.018 187.549L245.173 188.594ZM251.689 192.829C251.454 192.638 251.219 192.499 250.985 192.411C250.75 192.316 250.523 192.268 250.303 192.268C250.024 192.268 249.797 192.334 249.621 192.466C249.445 192.598 249.357 192.77 249.357 192.983C249.357 193.13 249.401 193.251 249.489 193.346C249.577 193.441 249.69 193.526 249.83 193.599C249.976 193.665 250.138 193.724 250.314 193.775C250.497 193.826 250.677 193.881 250.853 193.94C251.557 194.175 252.07 194.49 252.393 194.886C252.723 195.275 252.888 195.784 252.888 196.415C252.888 196.84 252.814 197.225 252.668 197.57C252.528 197.915 252.319 198.212 252.041 198.461C251.769 198.703 251.432 198.89 251.029 199.022C250.633 199.161 250.182 199.231 249.676 199.231C248.627 199.231 247.655 198.919 246.761 198.296L247.685 196.558C248.007 196.844 248.326 197.057 248.642 197.196C248.957 197.335 249.269 197.405 249.577 197.405C249.929 197.405 250.189 197.324 250.358 197.163C250.534 197.002 250.622 196.818 250.622 196.613C250.622 196.488 250.6 196.382 250.556 196.294C250.512 196.199 250.438 196.114 250.336 196.041C250.233 195.96 250.097 195.887 249.929 195.821C249.767 195.755 249.569 195.682 249.335 195.601C249.056 195.513 248.781 195.418 248.51 195.315C248.246 195.205 248.007 195.062 247.795 194.886C247.589 194.71 247.421 194.49 247.289 194.226C247.164 193.955 247.102 193.614 247.102 193.203C247.102 192.792 247.168 192.422 247.3 192.092C247.439 191.755 247.63 191.469 247.872 191.234C248.121 190.992 248.422 190.805 248.774 190.673C249.133 190.541 249.533 190.475 249.973 190.475C250.383 190.475 250.812 190.534 251.26 190.651C251.707 190.761 252.136 190.926 252.547 191.146L251.689 192.829ZM260.14 197.174H260.635C261.009 197.174 261.343 197.115 261.636 196.998C261.93 196.881 262.175 196.719 262.373 196.514C262.579 196.309 262.733 196.067 262.835 195.788C262.945 195.502 263 195.19 263 194.853C263 194.523 262.945 194.215 262.835 193.929C262.725 193.643 262.568 193.397 262.362 193.192C262.164 192.987 261.919 192.825 261.625 192.708C261.332 192.591 261.002 192.532 260.635 192.532H260.14V197.174ZM257.984 190.706H261.174C261.739 190.706 262.267 190.82 262.758 191.047C263.257 191.274 263.69 191.579 264.056 191.96C264.43 192.334 264.724 192.774 264.936 193.28C265.149 193.779 265.255 194.303 265.255 194.853C265.255 195.396 265.149 195.92 264.936 196.426C264.731 196.925 264.441 197.365 264.067 197.746C263.701 198.127 263.268 198.432 262.769 198.659C262.278 198.886 261.746 199 261.174 199H257.984V190.706ZM271.351 192.532H268.788V193.918H271.208V195.744H268.788V197.174H271.351V199H266.632V190.706H271.351V192.532ZM279.789 192.532V199H277.633V192.532H275.862V190.706H281.56V192.532H279.789ZM286.643 195.92L285.675 193.159L284.707 195.92H286.643ZM287.215 197.559H284.135L283.64 199H281.341L284.498 190.706H286.852L290.009 199H287.71L287.215 197.559ZM293.108 190.706V197.174H295.693V199H290.952V190.706H293.108ZM301.526 192.532H298.963V193.918H301.383V195.744H298.963V197.174H301.526V199H296.807V190.706H301.526V192.532ZM303.08 199V190.706H305.236L309.218 195.777V190.706H311.363V199H309.218L305.236 193.929V199H303.08ZM316.248 192.532V199H314.092V192.532H312.321V190.706H318.019V192.532H316.248Z" fill="#F5ECC4"/>
</svg>
